inDegrees=no
num_controls=7
num_derivatives=13
num_iterations=134
num_multipliers=7
num_parameters=0
num_slacks=7
num_states=26
objective=0.475102
objective_accelerations=0.047266
objective_balance=0.003674
objective_effort=0.042624
objective_height=0.375885
objective_ligament=0.005654
solver_duration=1920.237470
status=Solve_Succeeded
success=true
DataType=double
version=3
OpenSimVersion=4.5
endheader
time	/jointset/ground_pelvis/pelvis_tilt/value	/jointset/ground_pelvis/pelvis_tx/value	/jointset/ground_pelvis/pelvis_ty/value	/jointset/hip_l/hip_flexion_l/value	/jointset/hip_l/hip_adduction_l/value	/jointset/hip_l/hip_rotation_l/value	/jointset/back/lumbar_extension/value	/jointset/patellofemoral_l/patellar_flexion_l/value	/jointset/knee_l/knee_flexion_l/value	/jointset/knee_l/knee_adduction_l/value	/jointset/knee_l/knee_rotation_l/value	/jointset/ankle_l/ankle_angle_l/value	/jointset/subtalar_l/subtalar_angle_l/value	/jointset/ground_pelvis/pelvis_tilt/speed	/jointset/ground_pelvis/pelvis_tx/speed	/jointset/ground_pelvis/pelvis_ty/speed	/jointset/hip_l/hip_flexion_l/speed	/jointset/hip_l/hip_adduction_l/speed	/jointset/hip_l/hip_rotation_l/speed	/jointset/back/lumbar_extension/speed	/jointset/patellofemoral_l/patellar_flexion_l/speed	/jointset/knee_l/knee_flexion_l/speed	/jointset/knee_l/knee_adduction_l/speed	/jointset/knee_l/knee_rotation_l/speed	/jointset/ankle_l/ankle_angle_l/speed	/jointset/subtalar_l/subtalar_angle_l/speed	/forceset/tau_hip_flexion_l	/forceset/tau_hip_adduction_l	/forceset/tau_hip_rotation_l	/forceset/tau_knee_flexion_l	/forceset/tau_ankle_angle_l	/forceset/tau_subtalar_angle_l	/forceset/tau_lumbar_extension	lambda_cid13_p0	lambda_cid13_p1	lambda_cid13_p2	lambda_cid13_p3	lambda_cid13_p4	lambda_cid13_p5	lambda_cid14_p0	/jointset/ground_pelvis/pelvis_tilt/accel	/jointset/ground_pelvis/pelvis_tx/accel	/jointset/ground_pelvis/pelvis_ty/accel	/jointset/hip_l/hip_flexion_l/accel	/jointset/hip_l/hip_adduction_l/accel	/jointset/hip_l/hip_rotation_l/accel	/jointset/back/lumbar_extension/accel	/jointset/patellofemoral_l/patellar_flexion_l/accel	/jointset/knee_l/knee_flexion_l/accel	/jointset/knee_l/knee_adduction_l/accel	/jointset/knee_l/knee_rotation_l/accel	/jointset/ankle_l/ankle_angle_l/accel	/jointset/subtalar_l/subtalar_angle_l/accel	gamma_cid13_p0	gamma_cid13_p1	gamma_cid13_p2	gamma_cid13_p3	gamma_cid13_p4	gamma_cid13_p5	gamma_cid14_p0
0	-0.03679896739507598	0.05666706784656584	0.9203420077500896	0.3085816938045678	-0.2956333279605202	-0.3014513134454111	-0.3879492264334186	0.2499269421184941	0.2499269421184919	-0.1745329001654529	-0.1743797088501218	-0.0008036623358878681	0.0004430091226835368	0	0	0	0	0	0	0	0	0	0	0	0	0	0.07469695362540442	-0.05091586094352298	-0.01955341490944483	-0.2409767479486053	0.1821468947442976	-0.01113481797457527	-0.001445834884173326	15.38687005725895	-0.4505403376845392	2.578508105164139	13.01355915370248	-617.7223436781876	-76.23968262399839	-23.19172851609295	-1.127215215803049	-2.172424457692698	-0.9859692931790298	9.978063787390154	-0.84152574510426	3.514907329148046	-7.50721181717222	10.00086068234397	10.00086068234379	1.467275586029673	-0.08404147445989134	1.737179332402913	-0.3145198941277418	2.447665394159225e-09	1.898218444449288e-07	7.567382835417926e-08	-1.275696190703367e-08	1.454558121165619e-07	4.927720333581124e-09	5.892886086035621e-09
0.01	-0.03685139364888964	0.05656048928377693	0.9202938340737284	0.3090677597165636	-0.2956754955991276	-0.3012749981362678	-0.3883229361600146	0.2504171850725084	0.2504171850725008	-0.1744632162736692	-0.1743803731528267	-0.0007182813602544918	0.0004266700479797666	-0.01044358758713465	-0.0211304385104659	-0.00959329136057159	0.09666917905886906	-0.008381678765530962	0.03507271141705237	-0.07419699046495595	0.09760182574084744	0.09760182574084471	0.01388530008983289	-0.0001471938162159376	0.01711297960123474	-0.003199640244729086	0.07060042736138825	-0.05839145645369054	-0.01929138879928308	-0.2402197061539511	0.1813060620943167	-0.002449598767518278	0.003251310306956513	15.33105695880671	-4.125750133753101	3.065052668615316	10.90648275166419	-620.8061400021506	-83.60296576419834	-23.19737546364896	-0.9966911574319685	-2.055564992160777	-0.9397633795845192	9.429737066425787	-0.8287539314649438	3.474898680600293	-7.294199432922587	9.572827582219727	9.572827582219468	1.341475763937734	0.01779820311125222	1.703880194489285	-0.3124989819948388	-3.215770211664022e-08	1.689748335708893e-07	1.55947573180996e-07	2.136801485720961e-08	1.567719124151754e-09	-5.435231120413733e-08	-4.665531975361935e-09
0.02	-0.03700700790402922	0.05624816404699577	0.9201509766193438	0.3105041958394054	-0.2957999330232279	-0.3007536665864305	-0.3894222671456137	0.2518700430963765	0.2518700430963761	-0.1742562156722932	-0.1743829380860416	-0.0004606660045076936	0.0003803719923588337	-0.02063760026479141	-0.04114933479845317	-0.01893675560467796	0.1900740421693583	-0.01645395709855917	0.06900324813876192	-0.145124251800516	0.1925230139722789	0.1925230139722762	0.02746334191877146	-0.0003801260998835019	0.03444687602269023	-0.005991796183432164	0.06650390109737464	-0.06586705196385763	-0.01902936268905704	-0.2394626643593048	0.1804652294443359	0.006235620439538454	0.00794845549808847	15.35279330061351	-7.812873456778273	3.551594640816744	8.681696047043067	-622.7291536173611	-90.8692884672886	-23.21398230509244	-1.077300233907413	-1.950116013197023	-0.9360038698859864	9.325200597714197	-0.7796456586037058	3.286472390079479	-6.853265991293001	9.464733180460778	9.464733180461154	1.405823933850818	-0.1011891679502247	1.781362696447009	-0.2330230329225569	-6.676306962743965e-08	1.481278226968499e-07	2.362213180078127e-07	5.54929916214529e-08	-1.423203738682584e-07	-1.136323427418558e-07	-1.522395003675949e-08
0.03	-0.03726325131911116	0.05574052626112245	0.9199156144778043	0.3128593019381142	-0.2960034539993894	-0.2998991476105848	-0.3912147476235227	0.2542588078417205	0.2542588078417222	-0.1739150752683285	-0.1743886062996284	-2.959054932090325e-05	0.0003079386306598726	-0.03053892642666066	-0.06026105720048769	-0.02812148068741878	0.2804655098846394	-0.02419490173173312	0.101744883097191	-0.2128768550483049	0.2847795076383311	0.2847795076383187	0.04068319525430621	-0.0007290254517383334	0.051707173682845	-0.008458407441526299	0.05902154218296953	-0.06001793632508756	-0.01804284704536488	-0.2326473983515275	0.1735167994973985	0.005556507539287227	0.01440916000663311	13.04806329753217	-7.194665437440277	3.544725546217735	9.248930870880375	-624.1832800884173	-88.6285457190332	-23.24084292715763	-0.9357318200407001	-1.874114341008067	-0.9076070705436381	8.823859662776508	-0.7630721718728646	3.244630147765001	-6.66200918148676	9.038546428372387	9.038546428370703	1.267883181109242	0.001969587766468178	1.689207520436885	-0.2480602545087725	-9.068236452866875e-08	1.371077511945791e-07	3.065046923698335e-07	7.737563048537148e-08	-2.394140921481363e-07	-1.598284135304018e-07	-2.363990093476605e-08
